<svg width="62" height="64" viewBox="0 0 62 64" fill="none" xmlns="http://www.w3.org/2000/svg">
<path d="M44.8667 13.0558V15.9998L25.8053 59.7331H3.26665C2.41796 59.7331 1.60403 59.396 1.00391 58.7959C0.403792 58.1958 0.0666504 57.3818 0.0666504 56.5331V4.26646C0.0666504 3.41777 0.403792 2.60384 1.00391 2.00372C1.60403 1.4036 2.41796 1.06646 3.26665 1.06646H32.8773C33.3352 1.06371 33.7877 1.16588 34.2 1.36513C34.5501 1.518 34.8685 1.73508 35.1387 2.00513L43.928 10.7945C44.1978 11.0671 44.418 11.3848 44.5787 11.7331C44.7696 12.1479 44.8679 12.5992 44.8667 13.0558Z" fill="#E8EDF4"/>
<path d="M8.5999 11.7324H6.46657C5.87747 11.7324 5.3999 12.21 5.3999 12.7991V24.5324C5.3999 25.1215 5.87747 25.5991 6.46657 25.5991H8.5999C9.18901 25.5991 9.66657 25.1215 9.66657 24.5324V12.7991C9.66657 12.21 9.18901 11.7324 8.5999 11.7324Z" fill="#39B54A"/>
<path d="M17.1333 13.8672H15C14.4109 13.8672 13.9333 14.3448 13.9333 14.9339V24.5339C13.9333 25.123 14.4109 25.6005 15 25.6005H17.1333C17.7225 25.6005 18.2 25.123 18.2 24.5339V14.9339C18.2 14.3448 17.7225 13.8672 17.1333 13.8672Z" fill="#E84646"/>
<path d="M23.5332 25.5993C23.2503 25.5993 22.979 25.487 22.779 25.2869C22.5789 25.0869 22.4666 24.8156 22.4666 24.5327V11.7327C22.4666 11.4498 22.5789 11.1785 22.779 10.9784C22.979 10.7784 23.2503 10.666 23.5332 10.666H25.6666C25.9495 10.666 26.2208 10.7784 26.4208 10.9784C26.6208 11.1785 26.7332 11.4498 26.7332 11.7327V25.5993H23.5332Z" fill="#39BCEA"/>
<path d="M44.5786 11.7332H37.4C36.5513 11.7332 35.7373 11.3961 35.1372 10.796C34.5371 10.1959 34.2 9.38193 34.2 8.53324V1.36523C34.55 1.51811 34.8684 1.73518 35.1386 2.00523L43.928 10.7946C44.1978 11.0672 44.418 11.3849 44.5786 11.7332Z" fill="#AEC5D3"/>
<path d="M26.7332 34.1333H6.46657C6.18367 34.1333 5.91236 34.021 5.71232 33.8209C5.51228 33.6209 5.3999 33.3496 5.3999 33.0667C5.3999 32.7838 5.51228 32.5125 5.71232 32.3124C5.91236 32.1124 6.18367 32 6.46657 32H26.7332C27.0161 32 27.2874 32.1124 27.4875 32.3124C27.6875 32.5125 27.7999 32.7838 27.7999 33.0667C27.7999 33.3496 27.6875 33.6209 27.4875 33.8209C27.2874 34.021 27.0161 34.1333 26.7332 34.1333Z" fill="#AEC5D3"/>
<path d="M26.7332 40.5337H6.46657C6.18367 40.5337 5.91236 40.4213 5.71232 40.2213C5.51228 40.0213 5.3999 39.75 5.3999 39.4671C5.3999 39.1842 5.51228 38.9128 5.71232 38.7128C5.91236 38.5128 6.18367 38.4004 6.46657 38.4004H26.7332C27.0161 38.4004 27.2874 38.5128 27.4875 38.7128C27.6875 38.9128 27.7999 39.1842 27.7999 39.4671C27.7999 39.75 27.6875 40.0213 27.4875 40.2213C27.2874 40.4213 27.0161 40.5337 26.7332 40.5337Z" fill="#AEC5D3"/>
<path d="M26.7332 46.9341H6.46657C6.18367 46.9341 5.91236 46.8217 5.71232 46.6217C5.51228 46.4217 5.3999 46.1503 5.3999 45.8674C5.3999 45.5846 5.51228 45.3132 5.71232 45.1132C5.91236 44.9132 6.18367 44.8008 6.46657 44.8008H26.7332C27.0161 44.8008 27.2874 44.9132 27.4875 45.1132C27.6875 45.3132 27.7999 45.5846 27.7999 45.8674C27.7999 46.1503 27.6875 46.4217 27.4875 46.6217C27.2874 46.8217 27.0161 46.9341 26.7332 46.9341Z" fill="#AEC5D3"/>
<path d="M16.0666 53.3326H6.46657C6.18367 53.3326 5.91236 53.2202 5.71232 53.0201C5.51228 52.8201 5.3999 52.5488 5.3999 52.2659C5.3999 51.983 5.51228 51.7117 5.71232 51.5116C5.91236 51.3116 6.18367 51.1992 6.46657 51.1992H16.0666C16.3495 51.1992 16.6208 51.3116 16.8208 51.5116C17.0209 51.7117 17.1332 51.983 17.1332 52.2659C17.1332 52.5488 17.0209 52.8201 16.8208 53.0201C16.6208 53.2202 16.3495 53.3326 16.0666 53.3326Z" fill="#AEC5D3"/>
<path d="M57.6667 16H29.9334C27.577 16 25.6667 17.9103 25.6667 20.2667V58.6667C25.6667 61.0231 27.577 62.9333 29.9334 62.9333H57.6667C60.0232 62.9333 61.9334 61.0231 61.9334 58.6667V20.2667C61.9334 17.9103 60.0232 16 57.6667 16Z" fill="#202651"/>
<path d="M35.2667 33.0664H31C30.4109 33.0664 29.9333 33.544 29.9333 34.1331V37.3331C29.9333 37.9222 30.4109 38.3997 31 38.3997H35.2667C35.8558 38.3997 36.3334 37.9222 36.3334 37.3331V34.1331C36.3334 33.544 35.8558 33.0664 35.2667 33.0664Z" fill="#09C03C"/>
<path d="M45.9334 33.0664H41.6667C41.0776 33.0664 40.6 33.544 40.6 34.1331V37.3331C40.6 37.9222 41.0776 38.3997 41.6667 38.3997H45.9334C46.5225 38.3997 47 37.9222 47 37.3331V34.1331C47 33.544 46.5225 33.0664 45.9334 33.0664Z" fill="#636CAE"/>
<path d="M56.6 33.0664H52.3333C51.7442 33.0664 51.2667 33.544 51.2667 34.1331V37.3331C51.2667 37.9222 51.7442 38.3997 52.3333 38.3997H56.6C57.1891 38.3997 57.6667 37.9222 57.6667 37.3331V34.1331C57.6667 33.544 57.1891 33.0664 56.6 33.0664Z" fill="#636CAE"/>
<path d="M35.2667 42.666H31C30.4109 42.666 29.9333 43.1436 29.9333 43.7327V46.9327C29.9333 47.5218 30.4109 47.9993 31 47.9993H35.2667C35.8558 47.9993 36.3334 47.5218 36.3334 46.9327V43.7327C36.3334 43.1436 35.8558 42.666 35.2667 42.666Z" fill="#636CAE"/>
<path d="M45.9334 42.666H41.6668C41.0777 42.666 40.6001 43.1436 40.6001 43.7327V46.9327C40.6001 47.5218 41.0777 47.9993 41.6668 47.9993H45.9334C46.5225 47.9993 47.0001 47.5218 47.0001 46.9327V43.7327C47.0001 43.1436 46.5225 42.666 45.9334 42.666Z" fill="#09C03C"/>
<path d="M56.5999 42.666H52.3333C51.7442 42.666 51.2666 43.1436 51.2666 43.7327V46.9327C51.2666 47.5218 51.7442 47.9993 52.3333 47.9993H56.5999C57.189 47.9993 57.6666 47.5218 57.6666 46.9327V43.7327C57.6666 43.1436 57.189 42.666 56.5999 42.666Z" fill="#636CAE"/>
<path d="M35.2667 52.2656H31C30.4109 52.2656 29.9333 52.7432 29.9333 53.3323V56.5323C29.9333 57.1214 30.4109 57.599 31 57.599H35.2667C35.8558 57.599 36.3334 57.1214 36.3334 56.5323V53.3323C36.3334 52.7432 35.8558 52.2656 35.2667 52.2656Z" fill="#636CAE"/>
<path d="M45.9334 52.2656H41.6668C41.0777 52.2656 40.6001 52.7432 40.6001 53.3323V56.5323C40.6001 57.1214 41.0777 57.599 41.6668 57.599H45.9334C46.5225 57.599 47.0001 57.1214 47.0001 56.5323V53.3323C47.0001 52.7432 46.5225 52.2656 45.9334 52.2656Z" fill="#636CAE"/>
<path d="M56.5999 52.2676H52.3333C51.7442 52.2676 51.2666 52.7451 51.2666 53.3342V56.5342C51.2666 57.1233 51.7442 57.6009 52.3333 57.6009H56.5999C57.189 57.6009 57.6666 57.1233 57.6666 56.5342V53.3342C57.6666 52.7451 57.189 52.2676 56.5999 52.2676Z" fill="#09C03C"/>
<path d="M56.6 20.2676H31C30.4109 20.2676 29.9333 20.7451 29.9333 21.3342V27.7342C29.9333 28.3233 30.4109 28.8009 31 28.8009H56.6C57.1891 28.8009 57.6667 28.3233 57.6667 27.7342V21.3342C57.6667 20.7451 57.1891 20.2676 56.6 20.2676Z" fill="#39B54A"/>
</svg>
