<svg width="30" height="31" viewBox="0 0 30 31" fill="none" xmlns="http://www.w3.org/2000/svg">
<g filter="url(#filter0_d_1581_8599)">
<path d="M27 15.1943C27 21.8218 21.6274 27.1943 15 27.1943C8.37258 27.1943 3 21.8218 3 15.1943C3 8.56692 8.37258 3.19434 15 3.19434C21.6274 3.19434 27 8.56692 27 15.1943Z" fill="white" fill-opacity="0.8" shape-rendering="crispEdges"/>
</g>
<path d="M21.1908 10.4982C21.1015 10.4019 20.9952 10.3255 20.8782 10.2733C20.7611 10.2212 20.6355 10.1943 20.5087 10.1943C20.3819 10.1943 20.2564 10.2212 20.1393 10.2733C20.0223 10.3255 19.916 10.4019 19.8267 10.4982L12.6703 18.1614L9.66367 14.9359C9.57095 14.8401 9.4615 14.7648 9.34157 14.7142C9.22163 14.6637 9.09356 14.6389 8.96467 14.6413C8.83578 14.6437 8.70858 14.6732 8.59036 14.7281C8.47213 14.7831 8.36518 14.8624 8.27561 14.9615C8.18605 15.0607 8.11563 15.1777 8.06836 15.306C8.0211 15.4342 7.99792 15.5712 8.00015 15.709C8.00238 15.8469 8.02997 15.9829 8.08136 16.1093C8.13274 16.2357 8.20691 16.3501 8.29963 16.4459L11.9883 20.3905C12.0776 20.4868 12.1838 20.5632 12.3009 20.6153C12.418 20.6675 12.5435 20.6943 12.6703 20.6943C12.7971 20.6943 12.9227 20.6675 13.0397 20.6153C13.1568 20.5632 13.263 20.4868 13.3523 20.3905L21.1908 12.0082C21.2883 11.912 21.3661 11.7953 21.4193 11.6653C21.4725 11.5354 21.5 11.3951 21.5 11.2532C21.5 11.1113 21.4725 10.971 21.4193 10.8411C21.3661 10.7111 21.2883 10.5944 21.1908 10.4982Z" fill="#44BF34"/>
<defs>
<filter id="filter0_d_1581_8599" x="0" y="0.194336" width="30" height="30" filterUnits="userSpaceOnUse" color-interpolation-filters="sRGB">
<feFlood flood-opacity="0" result="BackgroundImageFix"/>
<feColorMatrix in="SourceAlpha" type="matrix" values="0 0 0 0 0 0 0 0 0 0 0 0 0 0 0 0 0 0 127 0" result="hardAlpha"/>
<feOffset/>
<feGaussianBlur stdDeviation="1.5"/>
<feComposite in2="hardAlpha" operator="out"/>
<feColorMatrix type="matrix" values="0 0 0 0 0 0 0 0 0 0 0 0 0 0 0 0 0 0 0.15 0"/>
<feBlend mode="normal" in2="BackgroundImageFix" result="effect1_dropShadow_1581_8599"/>
<feBlend mode="normal" in="SourceGraphic" in2="effect1_dropShadow_1581_8599" result="shape"/>
</filter>
</defs>
</svg>
