<svg width="64" height="64" viewBox="0 0 64 64" fill="none" xmlns="http://www.w3.org/2000/svg">
<path d="M52.2208 11.6215L49.2883 10.5742C45.8481 9.34556 42.0116 10.0906 39.2813 12.5175L34.5455 16.7271L50.8364 38.1089L56.5057 32.4396C58.7082 30.2372 59.7586 27.1343 59.347 24.0469L58.7697 19.7173C58.2748 16.0054 55.7474 12.881 52.2208 11.6215Z" fill="#A7EDE7"/>
<path d="M32.7495 14.9311L34.5455 16.7271L13.1636 38.1089L11.3677 36.313C6.93159 31.8769 5.6959 25.1621 8.26214 19.4374C9.77964 16.0522 12.4888 13.3431 15.874 11.8256C21.5987 9.25938 28.3134 10.4951 32.7495 14.9311Z" fill="#9681EB"/>
<path d="M41.6728 47.2725L32.9014 55.1668C32.1107 55.8784 30.9014 55.8466 30.1493 55.0944L13.1637 38.1089L34.5455 16.7271L51.6426 34.5316C52.3968 35.3169 52.3842 36.5612 51.6143 37.331L41.6728 47.2725Z" fill="#6527BE"/>
<path d="M18.8767 38.5049L16.2181 41.1634L28.4363 53.3816L31.0948 50.7231C31.8759 49.942 31.8759 48.6757 31.0948 47.8947L21.7051 38.5049C20.924 37.7239 19.6577 37.7239 18.8767 38.5049Z" fill="#45CFDD"/>
<path d="M16.2183 41.1635L28.4364 53.3816L27.7178 54.1003C27.5449 54.2731 27.2725 54.2957 27.0736 54.1536L20.5622 49.5027C20.3826 49.3744 20.2255 49.2173 20.0972 49.0377L15.4463 42.5263C15.3042 42.3274 15.3267 42.055 15.4996 41.8821L16.2183 41.1635Z" fill="#A7EDE7"/>
<path d="M23.7451 27.5274L34.5455 16.7271L39.6364 21.9998L32.6895 28.7916C31.9446 29.5198 30.8753 29.8095 29.8647 29.5569L23.8938 28.0641C23.6525 28.0038 23.5692 27.7033 23.7451 27.5274Z" fill="url(#paint0_linear_990_26900)"/>
<defs>
<linearGradient id="paint0_linear_990_26900" x1="45" y1="19.9998" x2="22" y2="25.9998" gradientUnits="userSpaceOnUse">
<stop stop-color="#45CFDD"/>
<stop offset="1" stop-color="#22A6B4"/>
</linearGradient>
</defs>
</svg>
