<svg width="64" height="64" viewBox="0 0 64 64" fill="none" xmlns="http://www.w3.org/2000/svg">
<path d="M42.9888 10.077C43.5247 10.0291 44.185 10.4104 44.7209 11.0771L54.9877 23.8495C55.5236 24.5161 55.8537 25.367 55.8537 26.0815L55.8542 39.7706C55.8542 40.4851 55.5241 40.9548 54.9882 41.0026L44.7218 41.9193C44.186 41.9671 43.5257 41.5859 42.9898 40.9192L32.723 28.1468C32.1871 27.4801 31.8569 26.6293 31.8569 25.9147L31.8565 12.2257C31.8565 11.5112 32.1866 11.0415 32.7224 10.9937L42.9888 10.077Z" fill="#CECE5A"/>
<path d="M43.3751 29.8806C43.6889 29.9572 44.022 30.1495 44.3358 30.4354L52.9212 38.2543C54.0216 39.2564 54.2024 41.0729 53.2105 41.1615L44.7218 41.9194C44.1859 41.9672 43.5257 41.586 42.9898 40.9193L34.5007 30.3586C33.5089 29.1246 33.6895 27.5168 34.7899 27.7854L43.3751 29.8806Z" fill="#F79A1B"/>
<g filter="url(#filter0_d_990_26905)">
<ellipse cx="4" cy="4" rx="4" ry="4" transform="matrix(0.86601 0.500028 3.18551e-05 1 40.3914 15.9989)" fill="#FFE17B"/>
</g>
<path d="M30.9888 18.077C31.5247 18.0291 32.185 18.4104 32.7209 19.0771L42.9877 31.8495C43.5236 32.5161 43.8537 33.367 43.8537 34.0815L43.8542 47.7706C43.8542 48.4851 43.5241 48.9548 42.9882 49.0026L32.7218 49.9193C32.186 49.9671 31.5257 49.5859 30.9898 48.9192L20.723 36.1468C20.1871 35.4801 19.8569 34.6293 19.8569 33.9147L19.8565 20.2257C19.8565 19.5112 20.1866 19.0415 20.7224 18.9937L30.9888 18.077Z" fill="#C51605"/>
<path d="M31.3751 37.8806C31.6889 37.9572 32.022 38.1495 32.3358 38.4354L40.9212 46.2543C42.0216 47.2564 42.2024 49.0729 41.2105 49.1615L32.7218 49.9194C32.1859 49.9672 31.5257 49.586 30.9898 48.9193L22.5007 38.3586C21.5089 37.1246 21.6895 35.5168 22.7899 35.7854L31.3751 37.8806Z" fill="#FFE17B"/>
<g filter="url(#filter1_d_990_26905)">
<ellipse cx="4" cy="4" rx="4" ry="4" transform="matrix(0.86601 0.500028 3.18551e-05 1 28.3914 23.9989)" fill="#FF9F1C"/>
</g>
<path d="M18.9888 24.077C19.5247 24.0291 20.185 24.4104 20.7209 25.0771L30.9877 37.8495C31.5236 38.5161 31.8537 39.367 31.8537 40.0815L31.8542 53.7706C31.8542 54.4851 31.5241 54.9548 30.9882 55.0026L20.7218 55.9193C20.186 55.9671 19.5257 55.5859 18.9898 54.9192L8.72299 42.1468C8.18709 41.4801 7.85694 40.6293 7.85692 39.9147L7.85649 26.2257C7.85646 25.5112 8.18656 25.0415 8.72244 24.9937L18.9888 24.077Z" fill="#FF9F1C"/>
<path d="M19.3751 43.8806C19.6889 43.9572 20.022 44.1495 20.3358 44.4354L28.9212 52.2543C30.0216 53.2564 30.2024 55.0729 29.2105 55.1615L20.7218 55.9194C20.1859 55.9672 19.5257 55.586 18.9898 54.9193L10.5007 44.3586C9.50886 43.1246 9.68952 41.5168 10.7899 41.7854L19.3751 43.8806Z" fill="#D17A03"/>
<g filter="url(#filter2_d_990_26905)">
<circle cx="4" cy="4" r="4" transform="matrix(0.86601 0.500028 3.18551e-05 1 16.3914 29.9989)" fill="#FFE17B"/>
</g>
<defs>
<filter id="filter0_d_990_26905" x="36.3915" y="17.5259" width="14.9281" height="16.9463" filterUnits="userSpaceOnUse" color-interpolation-filters="sRGB">
<feFlood flood-opacity="0" result="BackgroundImageFix"/>
<feColorMatrix in="SourceAlpha" type="matrix" values="0 0 0 0 0 0 0 0 0 0 0 0 0 0 0 0 0 0 127 0" result="hardAlpha"/>
<feOffset dy="4"/>
<feGaussianBlur stdDeviation="2"/>
<feComposite in2="hardAlpha" operator="out"/>
<feColorMatrix type="matrix" values="0 0 0 0 0 0 0 0 0 0 0 0 0 0 0 0 0 0 0.25 0"/>
<feBlend mode="normal" in2="BackgroundImageFix" result="effect1_dropShadow_990_26905"/>
<feBlend mode="normal" in="SourceGraphic" in2="effect1_dropShadow_990_26905" result="shape"/>
</filter>
<filter id="filter1_d_990_26905" x="24.3915" y="25.5259" width="14.9281" height="16.9463" filterUnits="userSpaceOnUse" color-interpolation-filters="sRGB">
<feFlood flood-opacity="0" result="BackgroundImageFix"/>
<feColorMatrix in="SourceAlpha" type="matrix" values="0 0 0 0 0 0 0 0 0 0 0 0 0 0 0 0 0 0 127 0" result="hardAlpha"/>
<feOffset dy="4"/>
<feGaussianBlur stdDeviation="2"/>
<feComposite in2="hardAlpha" operator="out"/>
<feColorMatrix type="matrix" values="0 0 0 0 0 0 0 0 0 0 0 0 0 0 0 0 0 0 0.25 0"/>
<feBlend mode="normal" in2="BackgroundImageFix" result="effect1_dropShadow_990_26905"/>
<feBlend mode="normal" in="SourceGraphic" in2="effect1_dropShadow_990_26905" result="shape"/>
</filter>
<filter id="filter2_d_990_26905" x="12.3915" y="31.5259" width="14.9281" height="16.9463" filterUnits="userSpaceOnUse" color-interpolation-filters="sRGB">
<feFlood flood-opacity="0" result="BackgroundImageFix"/>
<feColorMatrix in="SourceAlpha" type="matrix" values="0 0 0 0 0 0 0 0 0 0 0 0 0 0 0 0 0 0 127 0" result="hardAlpha"/>
<feOffset dy="4"/>
<feGaussianBlur stdDeviation="2"/>
<feComposite in2="hardAlpha" operator="out"/>
<feColorMatrix type="matrix" values="0 0 0 0 0 0 0 0 0 0 0 0 0 0 0 0 0 0 0.25 0"/>
<feBlend mode="normal" in2="BackgroundImageFix" result="effect1_dropShadow_990_26905"/>
<feBlend mode="normal" in="SourceGraphic" in2="effect1_dropShadow_990_26905" result="shape"/>
</filter>
</defs>
</svg>
