<svg width="53" height="48" viewBox="0 0 53 48" fill="none" xmlns="http://www.w3.org/2000/svg">
<g clip-path="url(#clip0_990_26910)">
<path d="M48.7507 7.94531H4.24902V46.0353H48.7507V7.94531Z" fill="#E9EAEB"/>
<path d="M48.7514 7.94531H43.1014V46.0353H48.7514V7.94531Z" fill="#B9BBC1"/>
<path d="M48.9063 7.94637H4.09363V1.69358C4.09363 1.19399 4.49856 0.789062 4.99814 0.789062H48.0017C48.5013 0.789062 48.9063 1.19399 48.9063 1.69358V7.94637Z" fill="#FDC74F"/>
<path d="M48.0018 0.789062H43.2563V5.49618H48.9063V1.69358C48.9063 1.19409 48.5013 0.789062 48.0018 0.789062Z" fill="#FCA629"/>
<path d="M4.24896 19.2844C2.20085 19.2844 0.540405 17.6241 0.540405 15.576V12.5547H7.95741V15.576C7.95751 17.6241 6.29707 19.2844 4.24896 19.2844Z" fill="#E60D28"/>
<path d="M11.666 19.2844C9.61784 19.2844 7.9574 17.6241 7.9574 15.576V12.5547H15.3744V15.576C15.3745 17.6241 13.7141 19.2844 11.666 19.2844Z" fill="#F2F2F2"/>
<path d="M19.0829 19.2844C17.0348 19.2844 15.3744 17.6241 15.3744 15.576V12.5547H22.7914V15.576C22.7915 17.6241 21.1311 19.2844 19.0829 19.2844Z" fill="#E60D28"/>
<path d="M26.5001 19.2844C24.4519 19.2844 22.7915 17.6241 22.7915 15.576V12.5547H30.2085V15.576C30.2085 17.6241 28.5482 19.2844 26.5001 19.2844Z" fill="#F2F2F2"/>
<path d="M33.917 19.2844C31.8689 19.2844 30.2085 17.6241 30.2085 15.576V12.5547H37.6255V15.576C37.6256 17.6241 35.9652 19.2844 33.917 19.2844Z" fill="#E60D28"/>
<path d="M41.334 19.2844C39.2859 19.2844 37.6255 17.6241 37.6255 15.576V12.5547H45.0425V15.576C45.0426 17.6241 43.3822 19.2844 41.334 19.2844Z" fill="#F2F2F2"/>
<path d="M48.751 19.2844C46.7029 19.2844 45.0425 17.6241 45.0425 15.576V12.5547H52.4595V15.576C52.4596 17.6241 50.7991 19.2844 48.751 19.2844Z" fill="#E60D28"/>
<path d="M7.95741 12.5551H0.540405L4.08991 5.49609H10.4928L7.95741 12.5551Z" fill="#FC502A"/>
<path d="M15.3744 12.5551H7.9574L10.4928 5.49609H16.8956L15.3744 12.5551Z" fill="white"/>
<path d="M22.7914 12.5551H15.3744L16.8956 5.49609H23.2985L22.7914 12.5551Z" fill="#FC502A"/>
<path d="M30.2085 12.5551H22.7915L23.2986 5.49609H29.7015L30.2085 12.5551Z" fill="white"/>
<path d="M37.6254 12.5551H30.2084L29.7014 5.49609H36.1043L37.6254 12.5551Z" fill="#FC502A"/>
<path d="M45.0425 12.5551H37.6255L36.1044 5.49609H42.5072L45.0425 12.5551Z" fill="white"/>
<path d="M52.4595 12.5551H45.0425L42.5072 5.49609H48.9101L52.4595 12.5551Z" fill="#FC502A"/>
<path d="M50.8062 42.5566H2.19376C1.25837 42.5566 0.5 43.3149 0.5 44.2504V46.7325C0.5 46.9977 0.715008 47.2126 0.980086 47.2126H52.0198C52.285 47.2126 52.4999 46.9976 52.4999 46.7325V44.2504C52.5 43.3149 51.7416 42.5566 50.8062 42.5566Z" fill="#8B8996"/>
<path d="M50.8063 42.5566H46.8328V47.2126H52.02C52.2851 47.2126 52.5001 46.9977 52.5001 46.7325V44.2504C52.5001 43.3149 51.7417 42.5566 50.8063 42.5566Z" fill="#706F7F"/>
<path d="M44.3677 37.5774H21.525C21.1522 37.5774 20.8501 37.2753 20.8501 36.9026V24.3331C20.8501 23.9604 21.1522 23.6582 21.525 23.6582H44.3677C44.7404 23.6582 45.0426 23.9604 45.0426 24.3331V36.9027C45.0426 37.2753 44.7404 37.5774 44.3677 37.5774Z" fill="#00C6C8"/>
<path d="M44.3676 23.6582H39.3751V37.5774H44.3676C44.7404 37.5774 45.0425 37.2753 45.0425 36.9026V24.3331C45.0425 23.9604 44.7404 23.6582 44.3676 23.6582Z" fill="#0FB0C0"/>
<path d="M17.6418 42.5555H7.21985V24.3331C7.21985 23.9604 7.522 23.6582 7.89473 23.6582H16.9669C17.3396 23.6582 17.6418 23.9604 17.6418 24.3331V42.5555Z" fill="#00C6C8"/>
<path d="M16.967 23.6582H11.9745V42.5555H17.6418V24.3331C17.6419 23.9604 17.3397 23.6582 16.967 23.6582Z" fill="#0FB0C0"/>
<path d="M14.7294 34.3333C15.1627 34.3333 15.514 33.982 15.514 33.5487V32.1362C15.514 31.7029 15.1627 31.3516 14.7294 31.3516C14.296 31.3516 13.9447 31.7029 13.9447 32.1362V33.5487C13.9446 33.982 14.296 34.3333 14.7294 34.3333Z" fill="white"/>
</g>
<defs>
<clipPath id="clip0_990_26910">
<rect width="53" height="48" fill="white"/>
</clipPath>
</defs>
</svg>
